<svg xmlns="http://www.w3.org/2000/svg" data-name="Layer 51" viewBox="0 0 100 100" x="0px" y="0px">
    <path fill="#ffffff"
        d="M9.51,26.39h0v46.4h0a.77.77,0,0,0,0,.15c0,.06,0,.12,0,.17l.06.14a.77.77,0,0,0,.07.16.44.44,0,0,0,.08.11.88.88,0,0,0,.12.15l.11.08a1.49,1.49,0,0,0,.14.12h0L49.38,96.09h0l.07,0h0l.08,0,.09,0a.92.92,0,0,0,.29,0h0a.92.92,0,0,0,.29,0l.09,0,.08,0h0l.07,0h0L89.86,73.88h0l.11-.09.15-.11.09-.13a.64.64,0,0,0,.1-.13s0-.1.07-.15,0-.09.06-.15,0-.11,0-.17a.77.77,0,0,0,0-.15h0V26.39h0s0,0,0-.07a1.13,1.13,0,0,0,0-.18c0-.06,0-.12,0-.18a.93.93,0,0,0,0-.1.41.41,0,0,1,0-.08l-.07-.08a.75.75,0,0,0-.07-.12s-.08-.06-.12-.1l-.14-.12-.08-.06h0L50.59,3.9l-.13,0-.15-.06-.16,0-.16,0-.15,0-.16,0-.15.06-.13,0L10.16,25.29h0l-.08.06-.14.12s-.09.06-.12.1a.75.75,0,0,0-.07.12l-.07.08a.41.41,0,0,1,0,.08.93.93,0,0,0-.05.1c0,.06,0,.12,0,.18a1.13,1.13,0,0,0,0,.18s0,.05,0,.07ZM48.74,7.1v8.67l-28.93,7.1ZM80.18,22.87l-28.94-7.1V7.1Zm6.55,49.91L56.49,89.89l21-22.45L80.15,69ZM12,34.81l9.24,30.47L12,70.63ZM52.48,18.64l35.18,8.64L76.92,62.68Zm-27.62,46L50,19.32,75.13,64.61Zm49.52,2.5L50,93.17,25.61,67.11ZM47.51,18.64l-24.44,44L12.34,27.28l30.91-7.59Zm-25,48.8,21,22.45L13.27,72.78Zm56.24-2.16L88,34.8V70.63Z" />
</svg>